# xmcd
#
# Track frame offsets: 
#        150
#        16685
#        31491
#        45893
#        64457
#        74145
#        89466
#        110912
#        127288
#        147335
#        165732
#        189276
#        210737
#        227568
#        242752
#        256407
#        281164
#        299287
#
# Disc length: 4204 seconds
#
# Revision: 0
# Processed by: cddbd v1.5.2PL0 Copyright (c) Steve Scherf et al.
# Submitted via: ExactAudioCopy v1.0b1
#
DISCID=19106a12
DTITLE=John Denver - The Essential John Denver
DYEAR=2007
DGENRE=Country
TTITLE0=Leaving, On a Jet Plane
TTITLE1=Rhymes and Reasons
TTITLE2=Take Me Home, Country Roads
TTITLE3=Poems, Prayers and Promises
TTITLE4=I Guess He'd Rather be in Colorado
TTITLE5=Friends With You
TTITLE6=Rocky Mountain High
TTITLE7=Goodbye Again
TTITLE8=I'd Rather be a Cowboy (Lady's Chains)
TTITLE9=Farewell Andromeda (Welome to my Morning)
TTITLE10=Sunshine on my Shoulder
TTITLE11=Back Home Again
TTITLE12=Matthew
TTITLE13=Thank God I'm a Country Boy
TTITLE14=Annie's Song
TTITLE15=Sweet Surrender
TTITLE16=Looking for Space
TTITLE17=I'm Sorry
EXTD=
EXTT0=
EXTT1=
EXTT2=
EXTT3=
EXTT4=
EXTT5=
EXTT6=
EXTT7=
EXTT8=
EXTT9=
EXTT10=
EXTT11=
EXTT12=
EXTT13=
EXTT14=
EXTT15=
EXTT16=
EXTT17=
PLAYORDER=
